HIERARCHY
ROOT Hips
{
	OFFSET 0.000000 0.000000 0.000000
	CHANNELS 6 Xposition Yposition Zposition Xrotation Yrotation Zrotation
	JOINT Chest
	{
		OFFSET 0.000000 0.009282 11.569106
		CHANNELS 6 Xposition Yposition Zposition Xrotation Yrotation Zrotation
		JOINT Chest2
		{
			OFFSET 0.000000 -0.016863 9.269641
			CHANNELS 6 Xposition Yposition Zposition Xrotation Yrotation Zrotation
			JOINT Chest3
			{
				OFFSET 0.000000 0.000000 8.374491
				CHANNELS 6 Xposition Yposition Zposition Xrotation Yrotation Zrotation
				JOINT Chest4
				{
					OFFSET 0.000000 0.000000 8.374493
					CHANNELS 6 Xposition Yposition Zposition Xrotation Yrotation Zrotation
					JOINT Neck
					{
						OFFSET 0.000000 -0.000001 12.152554
						CHANNELS 6 Xposition Yposition Zposition Xrotation Yrotation Zrotation
						JOINT Head
						{
							OFFSET 0.000000 -0.040100 7.802319
							CHANNELS 6 Xposition Yposition Zposition Xrotation Yrotation Zrotation
							End Site
							{
								OFFSET 0.000000 -0.020946 14.853096
							}
						}
					}
					JOINT RightCollar
					{
						OFFSET -2.894404 0.000000 6.791374
						CHANNELS 6 Xposition Yposition Zposition Xrotation Yrotation Zrotation
						JOINT RightShoulder
						{
							OFFSET -13.574684 0.000000 0.000000
							CHANNELS 6 Xposition Yposition Zposition Xrotation Yrotation Zrotation
							JOINT RightElbow
							{
								OFFSET -23.923903 0.000000 0.000000
								CHANNELS 6 Xposition Yposition Zposition Xrotation Yrotation Zrotation
								JOINT RightWrist
								{
									OFFSET -19.846718 -0.012765 0.000000
									CHANNELS 6 Xposition Yposition Zposition Xrotation Yrotation Zrotation
									End Site
									{
										OFFSET -14.973145 0.000000 0.000000
									}
								}
							}
						}
					}
					JOINT LeftCollar
					{
						OFFSET 2.894404 0.000000 6.791374
						CHANNELS 6 Xposition Yposition Zposition Xrotation Yrotation Zrotation
						JOINT LeftShoulder
						{
							OFFSET 13.574684 0.000000 0.000000
							CHANNELS 6 Xposition Yposition Zposition Xrotation Yrotation Zrotation
							JOINT LeftElbow
							{
								OFFSET 23.923903 0.000000 0.000000
								CHANNELS 6 Xposition Yposition Zposition Xrotation Yrotation Zrotation
								JOINT LeftWrist
								{
									OFFSET 19.846718 -0.012765 0.000000
									CHANNELS 6 Xposition Yposition Zposition Xrotation Yrotation Zrotation
									End Site
									{
										OFFSET 14.973145 0.000000 0.000000
									}
								}
							}
						}
					}
				}
			}
		}
	}
	JOINT RightHip
	{
		OFFSET -9.469263 -0.004642 0.045487
		CHANNELS 6 Xposition Yposition Zposition Xrotation Yrotation Zrotation
		JOINT RightKnee
		{
			OFFSET 0.000000 -0.002666 -40.478676
			CHANNELS 6 Xposition Yposition Zposition Xrotation Yrotation Zrotation
			JOINT RightAnkle
			{
				OFFSET 0.000000 -0.049110 -35.224068
				CHANNELS 6 Xposition Yposition Zposition Xrotation Yrotation Zrotation
				JOINT RightToe
				{
					OFFSET 0.000000 -12.539530 -6.151390
					CHANNELS 6 Xposition Yposition Zposition Xrotation Yrotation Zrotation
					End Site
					{
						OFFSET 0.000000 -5.044995 -1.291870
					}
				}
			}
		}
	}
	JOINT LeftHip
	{
		OFFSET 9.469263 -0.004642 0.045487
		CHANNELS 6 Xposition Yposition Zposition Xrotation Yrotation Zrotation
		JOINT LeftKnee
		{
			OFFSET 0.000000 -0.002666 -40.478676
			CHANNELS 6 Xposition Yposition Zposition Xrotation Yrotation Zrotation
			JOINT LeftAnkle
			{
				OFFSET 0.000000 -0.049110 -35.224068
				CHANNELS 6 Xposition Yposition Zposition Xrotation Yrotation Zrotation
				JOINT LeftToe
				{
					OFFSET 0.000000 -12.539530 -6.151390
					CHANNELS 6 Xposition Yposition Zposition Xrotation Yrotation Zrotation
					End Site
					{
						OFFSET 0.000000 -5.044995 -1.291870
					}
				}
			}
		}
	}
}
MOTION
Frames: 7
Frame Time: 0.016667
-12.879330 -4.478222 82.870049 2.570646 5.256469 -112.585519 0.000001 0.009279 11.569117 1.865079 0.371386 -0.730882 -0.000001 -0.016863 9.269630 0.827061 0.166240 -0.321620 -0.000001 0.000000 8.374478 0.827059 0.166240 -0.321620 0.000000 0.000001 8.374498 0.620207 0.125115 -0.240993 0.000000 -0.000002 12.152575 17.810311 -0.877798 -0.435712 0.000000 -0.040096 7.802313 -3.116702 -1.454973 -1.090920 -2.894403 0.000001 6.791382 3.198289 -8.049835 4.015632 -13.574686 0.000002 -0.000005 27.001249 -72.661506 66.462747 -23.923914 0.000002 -0.000006 30.737692 -7.809883 84.296460 -19.846722 -0.012761 -0.000001 -56.887870 24.072114 79.554792 2.894405 0.000000 6.791387 3.641693 10.371814 -5.641169 13.574681 -0.000001 0.000010 23.266145 69.240032 -61.703519 23.923899 -0.000008 -0.000001 32.509050 14.677325 -80.820925 19.846716 -0.012765 -0.000004 -41.734269 -34.738820 -88.100233 -9.469262 -0.004646 0.045490 11.086862 -0.615675 -2.321126 -0.000024 -0.002666 -40.478630 0.848595 -0.038705 0.563079 0.000010 -0.049130 -35.224365 -6.427453 -0.280789 -0.229440 -0.000001 -12.539531 -6.151377 0.005886 -0.006125 0.004691 9.469265 -0.004646 0.045497 10.827478 -0.371001 0.952109 -0.000047 -0.002665 -40.478672 0.045212 -0.585389 0.991126 0.000026 -0.049124 -35.224297 -5.030267 0.914035 -0.534122 -0.000002 -12.539535 -6.151383 0.008761 -0.000705 -0.004239 
-12.882606 -4.479859 82.870087 2.571211 5.254473 -112.589535 -0.000001 0.009283 11.569111 1.864023 0.370168 -0.735902 -0.000000 -0.016864 9.269627 0.826523 0.165991 -0.324115 -0.000001 0.000001 8.374484 0.826522 0.165991 -0.324120 -0.000001 0.000000 8.374498 0.619803 0.124932 -0.242866 0.000001 -0.000002 12.152563 17.819914 -0.873884 -0.430176 -0.000001 -0.040096 7.802325 -3.098779 -1.449770 -1.079386 -2.894403 0.000000 6.791378 3.195508 -8.050378 4.018074 -13.574681 0.000002 -0.000007 27.015802 -72.639028 66.490689 -23.923897 -0.000002 0.000002 30.725381 -7.819753 84.303386 -19.846725 -0.012776 0.000007 -56.899249 24.075485 79.568111 2.894404 0.000001 6.791379 3.637422 10.376890 -5.643476 13.574685 0.000002 -0.000008 23.273894 69.246384 -61.711982 23.923903 -0.000011 -0.000001 32.502097 14.687888 -80.829101 19.846706 -0.012756 -0.000003 -41.736018 -34.736218 -88.106496 -9.469263 -0.004641 0.045488 11.087189 -0.613214 -2.321487 -0.000025 -0.002666 -40.478622 0.846882 -0.041176 0.563402 0.000009 -0.049128 -35.224354 -6.426843 -0.280741 -0.228067 0.000000 -12.539530 -6.151392 0.006018 -0.006175 0.004769 9.469262 -0.004642 0.045493 10.827906 -0.371359 0.961785 -0.000049 -0.002665 -40.478668 0.046391 -0.583036 0.982139 0.000026 -0.049124 -35.224297 -5.033224 0.912633 -0.534019 -0.000000 -12.539533 -6.151380 0.009148 -0.001239 -0.003941 
-12.885424 -4.481411 82.870270 2.571563 5.252424 -112.594378 -0.000000 0.009281 11.569111 1.863109 0.368325 -0.741352 0.000001 -0.016863 9.269639 0.826125 0.165378 -0.326689 0.000000 -0.000001 8.374493 0.826126 0.165378 -0.326689 -0.000001 0.000001 8.374498 0.619506 0.124475 -0.244794 -0.000001 -0.000003 12.152555 17.829230 -0.868802 -0.425740 -0.000001 -0.040102 7.802314 -3.081394 -1.442058 -1.069481 -2.894405 0.000001 6.791358 3.194425 -8.046696 4.018443 -13.574682 0.000000 0.000005 27.029437 -72.623817 66.517956 -23.923903 0.000007 -0.000006 30.715449 -7.794782 84.314444 -19.846722 -0.012767 0.000008 -56.905096 24.078556 79.580610 2.894404 0.000000 6.791358 3.632422 10.385975 -5.641887 13.574683 0.000001 0.000008 23.262520 69.241343 -61.705944 23.923895 0.000001 0.000002 32.500625 14.697889 -80.843362 19.846710 -0.012760 0.000001 -41.739050 -34.741368 -88.117930 -9.469263 -0.004644 0.045502 11.087712 -0.609901 -2.320254 -0.000026 -0.002667 -40.478622 0.844382 -0.045156 0.560566 0.000009 -0.049129 -35.224361 -6.427104 -0.280137 -0.223384 0.000000 -12.539531 -6.151382 0.007259 -0.006126 0.004937 9.469262 -0.004642 0.045496 10.827365 -0.368790 0.963096 -0.000048 -0.002666 -40.478664 0.048768 -0.584885 0.979004 0.000026 -0.049126 -35.224289 -5.036565 0.912044 -0.530978 -0.000000 -12.539534 -6.151387 0.009467 -0.001264 -0.003994 
-12.886917 -4.483378 82.870461 2.571581 5.250367 -112.599616 -0.000001 0.009281 11.569106 1.862437 0.367502 -0.744097 -0.000000 -0.016862 9.269633 0.825935 0.165076 -0.327797 -0.000000 0.000000 8.374491 0.825935 0.165076 -0.327797 -0.000001 0.000000 8.374491 0.619363 0.124251 -0.245624 0.000000 -0.000004 12.152569 17.835736 -0.867699 -0.423880 -0.000000 -0.040102 7.802320 -3.069278 -1.440724 -1.065641 -2.894404 -0.000001 6.791378 3.196052 -8.042557 4.018975 -13.574679 0.000000 -0.000001 27.008330 -72.618360 66.514937 -23.923903 -0.000009 0.000001 30.706543 -7.770334 84.331690 -19.846718 -0.012757 -0.000002 -56.911868 24.081230 79.583438 2.894404 -0.000001 6.791377 3.628979 10.389317 -5.645121 13.574684 0.000000 0.000007 23.256558 69.230326 -61.709147 23.923895 -0.000007 0.000005 32.500506 14.701917 -80.860697 19.846716 -0.012771 -0.000001 -41.735721 -34.738124 -88.120314 -9.469265 -0.004642 0.045482 11.086685 -0.607353 -2.316323 -0.000025 -0.002667 -40.478622 0.842673 -0.046364 0.554704 0.000008 -0.049129 -35.224361 -6.426456 -0.281213 -0.218032 -0.000000 -12.539530 -6.151376 0.008046 -0.006065 0.004794 9.469263 -0.004643 0.045481 10.824891 -0.365652 0.957384 -0.000049 -0.002666 -40.478676 0.052161 -0.586403 0.981850 0.000025 -0.049124 -35.224300 -5.038724 0.909869 -0.521464 0.000000 -12.539531 -6.151385 0.009382 -0.000559 -0.004036 
-12.886721 -4.483743 82.870926 2.574859 5.249700 -112.608175 -0.000000 0.009282 11.569122 1.862847 0.365086 -0.747249 -0.000000 -0.016863 9.269633 0.826187 0.164189 -0.329058 -0.000000 0.000001 8.374489 0.826188 0.164189 -0.329051 -0.000000 0.000001 8.374491 0.619552 0.123587 -0.246567 -0.000000 0.000000 12.152557 17.839313 -0.864832 -0.421539 -0.000002 -0.040100 7.802307 -3.062593 -1.436310 -1.060370 -2.894405 0.000001 6.791369 3.201831 -8.040366 4.023843 -13.574681 0.000001 0.000001 26.982485 -72.606318 66.510251 -23.923887 -0.000008 0.000000 30.704511 -7.774187 84.343909 -19.846720 -0.012766 0.000006 -56.908576 24.082936 79.573917 2.894404 0.000000 6.791378 3.626975 10.396082 -5.646315 13.574684 0.000003 -0.000001 23.270436 69.203313 -61.731509 23.923903 -0.000007 -0.000003 32.488088 14.709888 -80.883346 19.846714 -0.012756 0.000000 -41.721398 -34.751046 -88.127650 -9.469263 -0.004643 0.045501 11.085449 -0.609972 -2.306710 -0.000025 -0.002666 -40.478626 0.844443 -0.045490 0.548944 0.000009 -0.049130 -35.224365 -6.426273 -0.280643 -0.213298 0.000001 -12.539530 -6.151388 0.008341 -0.006107 0.005232 9.469264 -0.004643 0.045501 10.823145 -0.368029 0.948693 -0.000048 -0.002667 -40.478676 0.058656 -0.585382 0.986908 0.000024 -0.049125 -35.224308 -5.042639 0.909012 -0.510862 0.000000 -12.539531 -6.151380 0.009742 -0.000466 -0.003826 
-12.885680 -4.484974 82.871605 2.577840 5.250857 -112.617026 0.000000 0.009279 11.569119 1.862232 0.363749 -0.752595 0.000000 -0.016863 9.269647 0.826091 0.163372 -0.331308 0.000001 0.000002 8.374485 0.826092 0.163371 -0.331308 -0.000000 0.000002 8.374487 0.619480 0.122977 -0.248263 -0.000000 -0.000001 12.152560 17.841617 -0.860411 -0.418136 0.000001 -0.040095 7.802330 -3.058240 -1.429401 -1.052643 -2.894403 0.000001 6.791377 3.205341 -8.038418 4.027880 -13.574685 0.000002 0.000008 26.960203 -72.592036 66.505996 -23.923895 -0.000014 -0.000001 30.705921 -7.798665 84.352290 -19.846725 -0.012760 0.000004 -56.904256 24.081066 79.553563 2.894405 0.000002 6.791372 3.630523 10.399113 -5.649535 13.574683 -0.000001 0.000002 23.265216 69.182180 -61.733101 23.923901 -0.000001 -0.000003 32.466812 14.702199 -80.909123 19.846712 -0.012767 -0.000002 -41.718457 -34.767172 -88.135614 -9.469264 -0.004644 0.045492 11.082873 -0.610309 -2.297909 -0.000025 -0.002666 -40.478634 0.850397 -0.044323 0.547911 0.000009 -0.049128 -35.224354 -6.428288 -0.282437 -0.213042 -0.000000 -12.539534 -6.151382 0.009257 -0.005039 0.005298 9.469264 -0.004645 0.045490 10.823148 -0.367671 0.936235 -0.000050 -0.002667 -40.478668 0.063327 -0.586573 0.997214 0.000024 -0.049122 -35.224304 -5.043757 0.907869 -0.508193 -0.000002 -12.539532 -6.151381 0.009055 0.000357 -0.004373 
-12.884631 -4.486826 82.871956 2.580684 5.251295 -112.629956 -0.000000 0.009282 11.569117 1.860297 0.361617 -0.757385 -0.000002 -0.016864 9.269645 0.825179 0.162360 -0.333324 0.000000 -0.000001 8.374495 0.825178 0.162360 -0.333316 -0.000000 0.000001 8.374491 0.618796 0.122220 -0.249766 0.000001 -0.000001 12.152556 17.844259 -0.854172 -0.413818 -0.000001 -0.040109 7.802311 -3.053223 -1.419491 -1.042636 -2.894404 0.000001 6.791376 3.206427 -8.035709 4.030863 -13.574684 0.000001 0.000001 26.971147 -72.574332 66.533925 -23.923904 0.000002 0.000001 30.702568 -7.812330 84.350780 -19.846703 -0.012778 0.000002 -56.910741 24.082473 79.554738 2.894405 0.000000 6.791375 3.636855 10.401178 -5.651494 13.574687 -0.000002 -0.000004 23.251750 69.183970 -61.722555 23.923903 -0.000010 -0.000003 32.454515 14.687459 -80.924805 19.846725 -0.012766 0.000001 -41.724628 -34.768723 -88.133974 -9.469261 -0.004642 0.045492 11.081037 -0.608976 -2.291548 -0.000025 -0.002666 -40.478642 0.852690 -0.045386 0.553387 0.000009 -0.049130 -35.224350 -6.428062 -0.282909 -0.211479 -0.000000 -12.539532 -6.151374 0.010114 -0.004265 0.005234 9.469263 -0.004642 0.045499 10.824014 -0.365519 0.937802 -0.000048 -0.002668 -40.478668 0.065617 -0.588012 1.007432 0.000024 -0.049123 -35.224289 -5.045273 0.906024 -0.509977 0.000000 -12.539533 -6.151375 0.009476 0.001577 -0.004672 
